
        <svg xmlns="http://www.w3.org/2000/svg" xmlns:xlink="http://www.w3.org/1999/xlink" version="1.1" width="3171.4285714285716" 
        height="2192.1436098331283" viewBox="0 0 3171.4285714285716 2192.1436098331283">
			
			<g transform="scale(8.571428571428571) translate(10, 10)">
				<defs id="SvgjsDefs1034"></defs><g id="SvgjsG1035" featureKey="HKaMnE-0" transform="matrix(1.5233741441780864,0,0,1.5233741441780864,102.63859496536034,-30.1308161749252)" fill="#f90f3e"><g xmlns="http://www.w3.org/2000/svg"><path fill="#f90f3e" d="M28.662,51.769H14.97l-6.809-12.49l6.809-12.491h13.691l6.808,12.491L28.662,51.769z M15.861,50.269h11.91   l5.989-10.99l-5.989-10.991h-11.91L9.87,39.278L15.861,50.269z M80.078,55.167h-13.69l-6.81-12.49l6.81-12.491h13.69l6.809,12.491   L80.078,55.167z M67.278,53.667h11.909l5.99-10.99l-5.99-10.991H67.278l-5.991,10.991L67.278,53.667z M17.771,54.858v-1.5h-3.764   l-1.73-3.175l-1.317,0.718l1.757,3.223l-1.558,2.538c-0.188-0.045-0.377-0.068-0.57-0.068c-0.935,0-1.778,0.517-2.203,1.349   c-0.622,1.213-0.139,2.708,1.078,3.332c0.347,0.176,0.735,0.27,1.123,0.27c0.936,0,1.782-0.518,2.208-1.35   c0.301-0.588,0.354-1.26,0.151-1.889c-0.105-0.326-0.277-0.62-0.497-0.87l1.583-2.577H17.771z M11.458,59.513   c-0.237,0.465-0.843,0.663-1.312,0.426c-0.479-0.246-0.669-0.834-0.424-1.314c0.167-0.326,0.5-0.53,0.869-0.53   c0.154,0,0.304,0.036,0.444,0.108c0.231,0.117,0.403,0.318,0.483,0.566S11.577,59.28,11.458,59.513z M21.897,24.73   c-0.387,0-0.775-0.094-1.123-0.271c-0.59-0.302-1.025-0.814-1.229-1.443s-0.15-1.3,0.152-1.889   c0.424-0.831,1.268-1.348,2.203-1.348c0.389,0,0.778,0.094,1.126,0.272c0.588,0.299,1.024,0.812,1.229,1.44   c0.203,0.629,0.149,1.299-0.151,1.888C23.678,24.214,22.833,24.73,21.897,24.73z M21.901,21.28c-0.369,0-0.701,0.203-0.868,0.53   c-0.119,0.233-0.141,0.497-0.061,0.745c0.081,0.248,0.253,0.449,0.484,0.568c0.469,0.238,1.075,0.04,1.312-0.426   c0.118-0.231,0.14-0.495,0.06-0.743c-0.08-0.247-0.252-0.449-0.484-0.566C22.204,21.316,22.055,21.28,21.901,21.28z M57.833,68.761   H44.141l-6.809-12.49l6.809-12.49h13.691l6.809,12.49L57.833,68.761z M60.245,38.205l-1.281-0.78l-1.829,3.002H53.29v1.5h4.687   L60.245,38.205z M39.667,45.812l-1.307,2.282l-4.609-2.723l-0.764,1.291l4.628,2.734l-1.292,2.257l1.303,0.745l3.344-5.842   L39.667,45.812z M47.049,70.351h-3.764l-1.731-3.174l-1.316,0.717l1.76,3.229l-1.973,3.331l1.291,0.766l1.995-3.369h3.738V70.351z    M71.664,66.147c-0.219-0.623-0.668-1.125-1.263-1.41c-0.945-0.455-2.104-0.199-2.83,0.516l-3.35-1.825l1.348-2.474l-1.316-0.717   l-3.55,6.513l1.316,0.718l1.483-2.723l3.391,1.848c-0.159,1.047,0.358,2.121,1.361,2.605c0.338,0.162,0.697,0.244,1.069,0.244   c0.947,0,1.824-0.551,2.233-1.401C71.844,67.444,71.882,66.772,71.664,66.147z M70.206,67.391   c-0.224,0.466-0.835,0.679-1.301,0.456c-0.484-0.234-0.688-0.818-0.455-1.303c0.164-0.34,0.5-0.552,0.878-0.552   c0.146,0,0.289,0.032,0.424,0.098c0.234,0.112,0.41,0.31,0.496,0.554C70.334,66.89,70.319,67.154,70.206,67.391z"></path></g></g><g id="SvgjsG1036" featureKey="J3GnXt-0" transform="matrix(5.543272134264655,0,0,5.543272134264655,-0.9741667350384263,70.70734257719525)" fill="#0277f5"><path d="M0.17578 6.006 l2.7734 0 l0 5.7422 l-0.53711 0 l0 5.9277 l4.1309 0 l0 1.2402 l-0.82031 0 l0 0.2832 l0.82031 0 l0 0.80078 l-2.6758 0 l0 -0.21484 l-3.6719 0 c-0.013018 -0.15625 -0.019531 -0.27344 -0.019531 -0.35156 l0 -3.125 l0.70313 0 l0 -0.41992 l-0.70313 0 l0 -9.8828 z M2.5977 16.9434 l0.16602 0 c0.078125 0.11067 0.1237 0.16602 0.13672 0.16602 c0.05208 -0.11067 0.091143 -0.16602 0.11719 -0.16602 l0.14648 0 c-0.019531 0.05208 -0.081377 0.14648 -0.18555 0.2832 c0.032549 0.065107 0.10091 0.17578 0.20508 0.33203 l-0.16602 0 c-0.078125 -0.071611 -0.11719 -0.13672 -0.11719 -0.19531 c-0.013018 0 -0.068359 0.065107 -0.16602 0.19531 l-0.13672 0 l0 -0.029297 l0.18555 -0.2832 l0 -0.019531 z M6.543 18.916 l1.0156 0 l0 0.2832 l-1.0156 0 l0 -0.2832 z M11.5673815625 6.006 l2.6367 -0.0000095367 c0.026045 0.0065136 0.039063 0.022793 0.039063 0.048838 l0 6.7969 c0 0.032549 -0.013018 0.048828 -0.039063 0.048828 l-0.3125 0 l0 7.0508 c0 0.032549 -0.016279 0.048828 -0.048828 0.048828 l-2.2754 0 c-0.032549 0 -0.048828 -0.016279 -0.048828 -0.048828 l0 -7.2168 l-0.70313 0 c-0.032549 0 -0.048828 -0.016279 -0.048828 -0.048828 l0 -0.30273 c0.0065136 -0.032549 0.022793 -0.048828 0.048838 -0.048828 l0.70313 0 l0 -6.2793 c0.0065136 -0.032549 0.022793 -0.048828 0.048838 -0.048828 z M11.5380615625 12.334 l0 0.40039 l1.3477 0 l0 -0.40039 l-1.3477 0 z M17.91015625 6.064 l6.9922 0 l0 2.3242 l-4.2188 0 l0 3.3008 l3.6328 0 l0.048828 0.029297 l-0.029297 0.048828 c-0.013018 0.46875 -0.019531 0.74219 -0.019531 0.82031 l-0.40039 0 l0 0.019531 c0 0.16276 -0.016279 0.52409 -0.048828 1.084 l0.38086 0 c0 0.26042 -0.022783 0.39063 -0.068359 0.39063 l-2.5586 0 l0 0.47852 l-1.3379 0 l0 0.25391 l0.40039 0 l0 1.2207 l1.3281 0 l0 0.21484 l-1.3281 0 l0 3.3789 l-0.029297 0.15625 l-1.4258 0 l0 0.21484 l-1.2695 0 c-0.032549 0 -0.048828 -0.016279 -0.048828 -0.048828 l0 -0.35156 l0.019531 -0.23438 l0.68359 0 l0 -0.35156 l-0.70313 0 l0 -1.3379 l0.33203 0 l0 -4.9219 l0.55664 0 l0 -0.36133 l-0.88867 0 l0 -6.3281 z M19.38475625 16.0352 l0 0.21484 l1.2695 0 l0 -0.21484 l-1.2695 0 z M27.7490196875 6.006 l8.2031 0 l0 2.334 l-2.7148 0 l0 9.6777 l1.2305 0 l0 0.2832 l-1.2305 0 l0 1.0645 l-0.73242 0 l0 0.37109 l0.51758 0 l0 0.26367 l-2.4902 0 c-0.032549 0 -0.048828 -0.016279 -0.048828 -0.048828 l0 -11.611 l-2.7344 0 l0 -2.334 z M32.2704796875 18.0176 l0 0.2832 l0.94727 0 l0 -0.2832 l-0.94727 0 z M39.511714375 6.103999999999999 l6.8457 0 l0 2.2754 c0 0.032549 -0.016279 0.048828 -0.048828 0.048828 l-4.0625 0 l0 3.0078 l3.6426 0 l0 0.029297 c0 0.084639 -0.013018 0.57617 -0.039063 1.4746 c-0.019531 0 -0.029297 0.0065136 -0.029297 0.019531 l0.16602 0 l0 0.70313 l-3.1543 0 l0 2.8516 l-0.84961 0 l0 0.2832 l0.84961 0 l0 0.86914 l3.5742 0 l0 0.32227 l-0.2832 0 l0 1.709 l-4.2773 0 l0 0.30273 l-2.0313 0 l0 -4.9805 l-0.30273 0 l0 -1.7578 l-2.2266 0 l0 -0.30273 l2.2266 0 l0 -6.8555 z M39.531254375 12.959 l0 0.30273 l1.1426 0 l0 -0.30273 l-1.1426 0 z M51.3818321875 6.035 l4.2578 0.0000095367 c1.7708 0 2.9883 0.60222 3.6523 1.8066 c0.57292 0.9375 0.85938 2.4935 0.85938 4.668 l0.41992 0 l0 3.3398 l-4.1406 0 l0 -0.38086 l1.2988 0 l0 -2.959 l-0.38086 0 l0 -1.2207 c0 -1.3737 -0.30599 -2.2493 -0.91797 -2.627 c-0.35808 -0.20183 -0.93425 -0.30273 -1.7285 -0.30273 l-0.57617 0 l0 4.082 l0.39063 0 l0 3.4082 l-2.793 0 l0 -3.1543 l-0.3418 0 l0 -6.6602 z M50.1416021875 15.849599999999999 l1.2598 0 l0 0.43945 l3.1152 0 l0 0.91797 l1.9141 0 l0 -0.91797 l4.1406 0 l0 0.91797 l-2.8418 0 l0 2.4902 l-3.2129 0 l0 0.30273 l-3.0859 0 c-0.032549 0 -0.048828 -0.016279 -0.048828 -0.048828 l0 -3.6621 l-1.2402 0 l0 -0.43945 z M54.5166421875 15.849599999999999 l1.9141 0 l0 0.43945 l-1.9141 0 l0 -0.43945 z M60.5712421875 15.849599999999999 l2.7441 0 l0 0.43945 l-2.7441 0 l0 -0.43945 z"></path></g><g id="SvgjsG1037" featureKey="sloganFeature-0" transform="matrix(0.7771222648095968,0,0,0.7771222648095968,9.585637529925043,219.91233707979313)" fill="#33b4ef"><path d="M3.76 5.640000000000001 l0 14.36 l-1.94 0 l0 -14.36 l1.94 0 z M41.59 17.240000000000002 l0 -11.6 l1.88 0 l0 14.36 l-2.18 0 l-7.3 -11.6 l-0.04 0 l0 11.6 l-1.88 0 l0 -14.36 l2.3 0 l7.18 11.6 l0.04 0 z M71.60000000000001 20 l0 -14.36 l5.82 0 c3.74 0 6.04 2.84 6.04 6.98 c0 3.22 -1.4 7.38 -6.12 7.38 l-5.74 0 z M73.54 7.300000000000001 l0 11.04 l3.76 0 c2.52 0 4.16 -1.98 4.16 -5.6 s-1.66 -5.44 -4.3 -5.44 l-3.62 0 z M122.19 12.82 c0 -3.38 -1.88 -5.84 -5 -5.84 s-5 2.46 -5 5.84 s1.88 5.84 5 5.84 s5 -2.46 5 -5.84 z M124.19 12.82 c0 3.1 -1.64 7.56 -7 7.56 s-7 -4.46 -7 -7.56 s1.64 -7.56 7 -7.56 s7 4.46 7 7.56 z M165.18 20 l-1.88 0 l0 -8.48 c0 -0.42 0.04 -2.24 0.04 -3.58 l-0.04 0 l-4.04 12.06 l-1.92 0 l-4.04 -12.04 l-0.04 0 c0 1.32 0.04 3.14 0.04 3.56 l0 8.48 l-1.88 0 l0 -14.36 l2.78 0 l4.1 12.14 l0.04 0 l4.08 -12.14 l2.76 0 l0 14.36 z M195.37 5.640000000000001 l0 14.36 l-1.94 0 l0 -14.36 l1.94 0 z M233.20000000000002 17.240000000000002 l0 -11.6 l1.88 0 l0 14.36 l-2.18 0 l-7.3 -11.6 l-0.04 0 l0 11.6 l-1.88 0 l0 -14.36 l2.3 0 l7.18 11.6 l0.04 0 z M261.87 7.359999999999999 l0 -1.72 l11.66 0 l0 1.72 l-4.86 0 l0 12.64 l-1.94 0 l0 -12.64 l-4.86 0 z M308.34000000000003 15.82 l-5.76 0 l-1.5 4.18 l-2 0 l5.4 -14.36 l2.2 0 l5.2 14.36 l-2.12 0 z M303.18 14.1 l4.46 0 l-2.12 -6.32 l-0.04 0 z M340.55 7.300000000000001 l0 4.42 l3.5 0 c1.86 0 3 -0.56 3 -2.32 c0 -1.34 -0.82 -2.1 -2.98 -2.1 l-3.52 0 z M338.61 20 l0 -14.36 l6.32 0 c2.68 0 4.06 1.66 4.06 3.62 c0 0.94 -0.34 2.26 -1.92 3 c0.94 0.38 2.6 1.04 2.6 3.5 c0 2.3 -1.7 4.24 -4.88 4.24 l-6.18 0 z M340.55 13.3 l0 5.04 l4.14 0 c2.02 0 3.04 -1.02 3.04 -2.62 c0 -2.02 -1.78 -2.42 -3.36 -2.42 l-3.82 0 z M378.91999999999996 5.640000000000001 l0 12.64 l7.28 0 l0 1.72 l-9.22 0 l0 -14.36 l1.94 0 z M423.89 18.28 l0 1.72 l-10.6 0 l0 -14.36 l10.46 0 l0 1.72 l-8.52 0 l0 4.4 l7.86 0 l0 1.72 l-7.86 0 l0 4.8 l8.66 0 z"></path></g>
			</g>
		</svg>
	